<?xml version="1.0" encoding="UTF-8"?>
<svg width="20px" height="20px" viewBox="0 0 20 20" version="1.1" xmlns="http://www.w3.org/2000/svg" xmlns:xlink="http://www.w3.org/1999/xlink">
    <!-- Generator: Sketch 61 (89581) - https://sketch.com -->
    <title>instagram</title>
    <desc>Created with Sketch.</desc>
    <g id="Symbols" stroke="none" stroke-width="1" fill="none" fill-rule="evenodd">
        <g id="lbh-elements/icons/Social_Media/instagram_white" transform="translate(-5.000000, -5.000000)" fill="#FFFFFF" fill-rule="nonzero">
            <g id="instagram" transform="translate(5.000000, 5.000000)">
                <path d="M14.0418922,-3.41060513e-13 L5.95810785,-3.41060513e-13 C2.67279333,-3.41060513e-13 0,2.67279333 0,5.95810785 L0,14.0418922 C0,17.3272067 2.67279333,20 5.95810785,20 L14.0418922,20 C17.3272067,20 20,17.3272067 20,14.0418922 L20,5.95810785 C20,2.67279333 17.3271704,-3.41060513e-13 14.0418922,-3.41060513e-13 Z M17.9880007,14.0418922 C17.9880007,16.2212495 16.2212495,17.9880007 14.0418922,17.9880007 L5.95810785,17.9880007 C3.77875049,17.9880007 2.01199926,16.2212495 2.01199926,14.0418922 L2.01199926,5.95810785 C2.01199926,3.7787142 3.77875049,2.01199926 5.95810785,2.01199926 L14.0418922,2.01199926 C16.2212495,2.01199926 17.9880007,3.7787142 17.9880007,5.95810785 L17.9880007,14.0418922 L17.9880007,14.0418922 Z M10,4.84848485 C7.15944998,4.84848485 4.84848485,7.15945809 4.84848485,9.99998193 C4.84848485,12.8405058 7.15944998,15.1515152 10,15.1515152 C12.84055,15.1515152 15.1515152,12.8405419 15.1515152,9.99998193 C15.1515152,7.15942194 12.84055,4.84848485 10,4.84848485 Z M10,6.85224645 C11.7384742,6.85224645 13.1477606,8.26153782 13.1477606,10.0000181 C13.1477606,11.7384622 11.738438,13.1477897 10,13.1477897 C8.26152584,13.1477897 6.85223942,11.7384983 6.85223942,10.0000181 C6.85223942,8.26153782 8.26156199,6.85224645 10,6.85224645 Z M15.1515152,4.24242424 C15.8209512,4.24242424 16.3636364,4.78510939 16.3636364,5.45454545 C16.3636364,6.12398151 15.8209512,6.66666667 15.1515152,6.66666667 C14.4820791,6.66666667 13.9393939,6.12398151 13.9393939,5.45454545 C13.9393939,4.78510939 14.4820791,4.24242424 15.1515152,4.24242424 Z" id="Shape"></path>
            </g>
        </g>
    </g>
</svg>