<?xml version="1.0" encoding="UTF-8"?>
<svg width="20px" height="17px" viewBox="0 0 20 17" version="1.1" xmlns="http://www.w3.org/2000/svg" xmlns:xlink="http://www.w3.org/1999/xlink">
    <!-- Generator: Sketch 61 (89581) - https://sketch.com -->
    <title>twitter</title>
    <desc>Created with Sketch.</desc>
    <g id="Symbols" stroke="none" stroke-width="1" fill="none" fill-rule="evenodd">
        <g id="lbh-elements/icons/Social_Media/twitter_white" transform="translate(-5.000000, -7.000000)" fill="#FFFFFF" fill-rule="nonzero">
            <g id="twitter" transform="translate(5.000000, 7.000000)">
                <path d="M20,1.9372028 C19.25625,2.26573427 18.46375,2.4834965 17.6375,2.58923077 C18.4875,2.07818182 19.13625,1.2751049 19.44125,0.307132867 C18.64875,0.782937063 17.77375,1.11902098 16.84125,1.30657343 C16.08875,0.49972028 15.01625,0 13.84625,0 C11.57625,0 9.74875,1.85538462 9.74875,4.12993007 C9.74875,4.4572028 9.77625,4.77188811 9.84375,5.07146853 C6.435,4.90405594 3.41875,3.25888112 1.3925,0.752727273 C1.03875,1.37076923 0.83125,2.07818182 0.83125,2.83972028 C0.83125,4.26965035 1.5625,5.5372028 2.6525,6.27104895 C1.99375,6.25846154 1.3475,6.06587413 0.8,5.76251748 C0.8,5.7751049 0.8,5.79146853 0.8,5.80783217 C0.8,7.81426573 2.22125,9.48083916 4.085,9.86475524 C3.75125,9.95664336 3.3875,10.0006993 3.01,10.0006993 C2.7475,10.0006993 2.4825,9.98559441 2.23375,9.93020979 C2.765,11.5653147 4.2725,12.7674126 6.065,12.8064336 C4.67,13.9053147 2.89875,14.5674126 0.98125,14.5674126 C0.645,14.5674126 0.3225,14.5523077 0,14.5107692 C1.81625,15.6902098 3.96875,16.3636364 6.29,16.3636364 C13.835,16.3636364 17.96,10.0699301 17.96,4.61454545 C17.96,4.43202797 17.95375,4.2558042 17.945,4.08083916 C18.75875,3.4993007 19.4425,2.77300699 20,1.9372028 Z" id="Path"></path>
            </g>
        </g>
    </g>
</svg>