<?xml version="1.0" encoding="UTF-8"?>
<svg width="26px" height="18px" viewBox="0 0 26 18" version="1.1" xmlns="http://www.w3.org/2000/svg" xmlns:xlink="http://www.w3.org/1999/xlink">
    <!-- Generator: Sketch 61 (89581) - https://sketch.com -->
    <title>youtube-square-brands</title>
    <desc>Created with Sketch.</desc>
    <g id="Symbols" stroke="none" stroke-width="1" fill="none" fill-rule="evenodd">
        <g id="lbh-elements/icons/Social_Media/youtube_white" transform="translate(-2.000000, -6.000000)" fill="#FFFFFF" fill-rule="nonzero">
            <g id="youtube-square-brands" transform="translate(2.000000, 6.000000)">
                <path d="M10.5089286,5.390625 L16.8839286,9.01339286 L10.5089286,12.6361607 L10.5089286,5.390625 Z M25.1875,9.02008929 C25.1875,9.02008929 25.1875,5.02901786 24.6785714,3.11383929 C24.3973214,2.05580357 23.5736607,1.22544643 22.5223214,0.944196429 C20.6272321,0.428571429 13,0.428571429 13,0.428571429 C13,0.428571429 5.37276786,0.428571429 3.47767857,0.944196429 C2.42633929,1.22544643 1.60267857,2.05580357 1.32142857,3.11383929 C0.8125,5.02232143 0.8125,9.02008929 0.8125,9.02008929 C0.8125,9.02008929 0.8125,13.0111607 1.32142857,14.9263393 C1.60267857,15.984375 2.42633929,16.78125 3.47767857,17.0625 C5.37276786,17.5714286 13,17.5714286 13,17.5714286 C13,17.5714286 20.6272321,17.5714286 22.5223214,17.0558036 C23.5736607,16.7745536 24.3973214,15.9776786 24.6785714,14.9196429 C25.1875,13.0111607 25.1875,9.02008929 25.1875,9.02008929 L25.1875,9.02008929 Z" id="Shape"></path>
            </g>
        </g>
    </g>
</svg>